<svg width="61" height="61" viewBox="0 0 61 61" fill="none" xmlns="http://www.w3.org/2000/svg">
<g filter="url(#filter0_d)">
<path d="M4 28.5C4 43.1391 15.8609 55 30.5 55C45.1391 55 57 43.1391 57 28.5C57 13.8609 45.1391 2 30.5 2C15.8609 2 4 13.8609 4 28.5ZM51.871 28.5C51.871 40.3075 42.3075 49.871 30.5 49.871C18.6925 49.871 9.12903 40.3075 9.12903 28.5C9.12904 16.6925 18.6925 7.12903 30.5 7.12903C42.3075 7.12903 51.871 16.6925 51.871 28.5ZM40.3841 29.4083L27.2623 42.53C26.7601 43.0323 25.948 43.0323 25.4458 42.53L23.0308 40.1151C22.5286 39.6129 22.5286 38.8008 23.0308 38.2986L32.8294 28.5L23.0308 18.7014C22.5286 18.1992 22.5286 17.3871 23.0308 16.8849L25.4458 14.47C25.948 13.9677 26.7601 13.9677 27.2623 14.47L40.3841 27.5917C40.8863 28.0939 40.8863 28.906 40.3841 29.4083Z" fill="white"/>
</g>
<defs>
<filter id="filter0_d" x="0" y="0" width="61" height="61" filterUnits="userSpaceOnUse" color-interpolation-filters="sRGB">
<feFlood flood-opacity="0" result="BackgroundImageFix"/>
<feColorMatrix in="SourceAlpha" type="matrix" values="0 0 0 0 0 0 0 0 0 0 0 0 0 0 0 0 0 0 127 0"/>
<feOffset dy="2"/>
<feGaussianBlur stdDeviation="2"/>
<feColorMatrix type="matrix" values="0 0 0 0 0 0 0 0 0 0 0 0 0 0 0 0 0 0 0.25 0"/>
<feBlend mode="normal" in2="BackgroundImageFix" result="effect1_dropShadow"/>
<feBlend mode="normal" in="SourceGraphic" in2="effect1_dropShadow" result="shape"/>
</filter>
</defs>
</svg>
