<svg width="61" height="61" viewBox="0 0 61 61" fill="none" xmlns="http://www.w3.org/2000/svg">
<g filter="url(#filter0_d)">
<path d="M57 28.5C57 13.8609 45.1391 2 30.5 2C15.8609 2 4 13.8609 4 28.5C4 43.1391 15.8609 55 30.5 55C45.1391 55 57 43.1391 57 28.5ZM9.12903 28.5C9.12903 16.6925 18.6925 7.12903 30.5 7.12903C42.3075 7.12903 51.871 16.6925 51.871 28.5C51.871 40.3075 42.3075 49.871 30.5 49.871C18.6925 49.871 9.12903 40.3075 9.12903 28.5ZM20.6159 27.5917L33.7377 14.47C34.2399 13.9677 35.052 13.9677 35.5542 14.47L37.9692 16.8849C38.4714 17.3871 38.4714 18.1992 37.9692 18.7014L28.1706 28.5L37.9692 38.2986C38.4714 38.8008 38.4714 39.6129 37.9692 40.1151L35.5542 42.53C35.052 43.0323 34.2399 43.0323 33.7377 42.53L20.6159 29.4083C20.1137 28.906 20.1137 28.094 20.6159 27.5917Z" fill="white"/>
</g>
<defs>
<filter id="filter0_d" x="0" y="0" width="61" height="61" filterUnits="userSpaceOnUse" color-interpolation-filters="sRGB">
<feFlood flood-opacity="0" result="BackgroundImageFix"/>
<feColorMatrix in="SourceAlpha" type="matrix" values="0 0 0 0 0 0 0 0 0 0 0 0 0 0 0 0 0 0 127 0"/>
<feOffset dy="2"/>
<feGaussianBlur stdDeviation="2"/>
<feColorMatrix type="matrix" values="0 0 0 0 0 0 0 0 0 0 0 0 0 0 0 0 0 0 0.25 0"/>
<feBlend mode="normal" in2="BackgroundImageFix" result="effect1_dropShadow"/>
<feBlend mode="normal" in="SourceGraphic" in2="effect1_dropShadow" result="shape"/>
</filter>
</defs>
</svg>
